<svg xmlns="http://www.w3.org/2000/svg" xmlns:svg="http://www.w3.org/2000/svg" id="svg7339" width="23.594" height="23.598" version="1.1"><title id="title3013">waf logo</title><metadata id="metadata7344"/><g id="layer1" transform="translate(-423.56214,-286.09002)"><rect style="fill:#f2e100;fill-opacity:1;stroke:#000;stroke-width:1.051;stroke-linecap:round;stroke-linejoin:round;stroke-miterlimit:4;stroke-opacity:1;stroke-dasharray:none" id="rect6090" width="22.549" height="22.549" x="424.083" y="286.623"/><text style="font-size:10px;font-style:normal;font-weight:400;fill:#000;fill-opacity:1;stroke:#000;stroke-width:1px;stroke-linecap:round;stroke-linejoin:round;stroke-opacity:1;font-family:Bitstream Vera Sans" id="text7069" x="426.622" y="296.694" xml:space="preserve"><tspan id="tspan7071" x="426.622" y="296.694">W</tspan></text><text style="font-size:10px;font-style:normal;font-weight:400;fill:#000;fill-opacity:1;stroke:#000;stroke-width:1px;stroke-linecap:butt;stroke-linejoin:round;stroke-opacity:1;font-family:Bitstream Vera Sans" id="text7073" x="437.112" y="296.694" xml:space="preserve"><tspan id="tspan7075" x="437.112" y="296.694">A</tspan></text><text style="font-size:10px;font-style:normal;font-weight:400;fill:#000;fill-opacity:1;stroke:#000;stroke-width:1;stroke-linecap:butt;stroke-linejoin:round;stroke-miterlimit:4;stroke-opacity:1;stroke-dasharray:none;font-family:Bitstream Vera Sans" id="text7077" x="437.266" y="306.033" xml:space="preserve"><tspan id="tspan7079" x="437.266" y="306.033">F</tspan></text><g id="g3190" transform="matrix(0.9591924,-0.2827542,0.2827542,0.9591924,-64.145876,110.79596)"><path id="path3144" d="m 366.60713,277.71933 -3.41973,-4.01731 -5.185,1.48526 5.18895,-0.95292 1.30624,-5.23298 -1.76923,4.97023 z" transform="translate(-15,6.4285714)" style="fill:#000;fill-opacity:1;stroke:#000;stroke-width:1.051;stroke-linecap:round;stroke-linejoin:round;stroke-miterlimit:4;stroke-opacity:1;stroke-dasharray:none"/><path id="path3148" d="m 366.60713,277.71933 -3.41973,-4.01731 -5.185,1.48526 5.18895,-0.95292 1.30624,-5.23298 -1.76923,4.97023 z" transform="translate(-8.1976222,-0.2838876)" style="fill:#000;fill-opacity:1;stroke:#000;stroke-width:1.051;stroke-linecap:round;stroke-linejoin:round;stroke-miterlimit:4;stroke-opacity:1;stroke-dasharray:none"/><path id="path3152" d="m 366.60713,277.71933 -3.41973,-4.01731 -5.185,1.48526 5.18895,-0.95292 1.30624,-5.23298 -1.76923,4.97023 z" transform="translate(-6.0547652,8.8232557)" style="fill:#000;fill-opacity:1;stroke:#000;stroke-width:1.051;stroke-linecap:round;stroke-linejoin:round;stroke-miterlimit:4;stroke-opacity:1;stroke-dasharray:none"/></g><g id="g3168" transform="matrix(0.7001692,0,0,0.549367,104.18611,117.59088)"><path id="path3154" d="m 366.60713,277.71933 -3.41973,-4.01731 -5.185,1.48526 5.18895,-0.95292 1.30624,-5.23298 -1.76923,4.97023 z" transform="matrix(0.9671075,-0.2543681,0.2543681,0.9671075,-30.100376,119.79498)" style="fill:#000;fill-opacity:1;stroke:#000;stroke-width:1.051;stroke-linecap:round;stroke-linejoin:round;stroke-miterlimit:4;stroke-opacity:1;stroke-dasharray:none"/><path id="path3166" d="m 366.60713,277.71933 -3.41973,-4.01731 -5.185,1.48526 5.18895,-0.95292 1.30624,-5.23298 -1.76923,4.97023 z" transform="matrix(0.7254905,0.6882321,-0.6882321,0.7254905,315.8949,-150.57874)" style="fill:#000;fill-opacity:1;stroke:#000;stroke-width:1.051;stroke-linecap:round;stroke-linejoin:round;stroke-miterlimit:4;stroke-opacity:1;stroke-dasharray:none"/></g><rect style="fill:#000;fill-opacity:1;stroke:#000;stroke-width:1.051;stroke-linecap:round;stroke-linejoin:round;stroke-miterlimit:4;stroke-opacity:1;stroke-dasharray:none" id="rect3174" width="4.286" height="2.143" x="385.357" y="279.148"/><rect style="fill:#000;fill-opacity:1;stroke:#000;stroke-width:1.051;stroke-linecap:round;stroke-linejoin:round;stroke-miterlimit:4;stroke-opacity:1;stroke-dasharray:none" id="rect3176" width="5.179" height="3.036" x="387.5" y="273.612"/><rect style="fill:#000;fill-opacity:1;stroke:#000;stroke-width:1.051;stroke-linecap:round;stroke-linejoin:round;stroke-miterlimit:4;stroke-opacity:1;stroke-dasharray:none" id="rect3178" width="3.75" height="4.464" x="393.393" y="280.041"/><rect style="fill:#000;fill-opacity:1;stroke:#000;stroke-width:1.051;stroke-linecap:round;stroke-linejoin:round;stroke-miterlimit:4;stroke-opacity:1;stroke-dasharray:none" id="rect3180" width="5.179" height="5.357" x="395.536" y="268.969"/><rect style="fill:#000;fill-opacity:1;stroke:#000;stroke-width:1.051;stroke-linecap:round;stroke-linejoin:round;stroke-miterlimit:4;stroke-opacity:1;stroke-dasharray:none" id="rect3182" width="3.929" height="6.786" x="383.75" y="286.648"/><rect style="fill:#000;fill-opacity:1;stroke:#000;stroke-width:1.051;stroke-linecap:round;stroke-linejoin:round;stroke-miterlimit:4;stroke-opacity:1;stroke-dasharray:none" id="rect3184" width="6.607" height="9.107" x="372.679" y="260.219"/><rect style="fill:#000;fill-opacity:1;stroke:#000;stroke-width:1.051;stroke-linecap:round;stroke-linejoin:round;stroke-miterlimit:4;stroke-opacity:1;stroke-dasharray:none" id="rect3186" width="4.464" height="3.214" x="387.679" y="257.719"/><rect style="fill:#000;fill-opacity:1;stroke:#000;stroke-width:1.051;stroke-linecap:round;stroke-linejoin:round;stroke-miterlimit:4;stroke-opacity:1;stroke-dasharray:none" id="rect3188" width="3.393" height="3.571" x="383.75" y="265.219"/><g id="g3199" transform="translate(-64.107143,-5.3571429)"><path id="path3164" d="m 366.60713,277.71933 -3.41973,-4.01731 -5.185,1.48526 5.18895,-0.95292 1.30624,-5.23298 -1.76923,4.97023 z" transform="matrix(0.3679607,-0.4597271,-0.3490636,-0.4846151,386.60602,602.27963)" style="fill:#000;fill-opacity:1;stroke:#000;stroke-width:1.051;stroke-linecap:round;stroke-linejoin:round;stroke-miterlimit:4;stroke-opacity:1;stroke-dasharray:none"/><path id="path3195" d="m 366.60713,277.71933 -3.41973,-4.01731 -5.185,1.48526 5.18895,-0.95292 1.30624,-5.23298 -1.76923,4.97023 z" transform="matrix(0.3679607,-0.4597271,-0.3490636,-0.4846151,384.25121,604.13046)" style="fill:#000;fill-opacity:1;stroke:#000;stroke-width:1.051;stroke-linecap:round;stroke-linejoin:round;stroke-miterlimit:4;stroke-opacity:1;stroke-dasharray:none"/><path id="path3197" d="m 366.60713,277.71933 -3.41973,-4.01731 -5.185,1.48526 5.18895,-0.95292 1.30624,-5.23298 -1.76923,4.97023 z" transform="matrix(0.3679607,-0.4597271,-0.3490636,-0.4846151,388.96083,604.13046)" style="fill:#000;fill-opacity:1;stroke:#000;stroke-width:1.051;stroke-linecap:round;stroke-linejoin:round;stroke-miterlimit:4;stroke-opacity:1;stroke-dasharray:none"/></g><g id="g3220" transform="translate(34.107143,-4.1071429)"><rect id="rect3204" width="6.225" height=".325" x="394.119" y="310.279" style="fill:#000;fill-opacity:1;stroke:#000;stroke-width:.67729282;stroke-linecap:round;stroke-linejoin:round;stroke-miterlimit:4;stroke-opacity:1;stroke-dasharray:none"/><rect id="rect3206" width="5.981" height=".325" x="394.241" y="308.001" style="fill:#000;fill-opacity:1;stroke:#000;stroke-width:.67729282;stroke-linecap:round;stroke-linejoin:round;stroke-miterlimit:4;stroke-opacity:1;stroke-dasharray:none"/><path id="path3208" d="m 374.82143,303.61218 c 0,1.28209 -1.03934,2.32143 -2.32143,2.32143 -1.28209,0 -2.32143,-1.03934 -2.32143,-2.32143 0,-1.28209 1.03934,-2.32143 2.32143,-2.32143 1.28209,0 2.32143,1.03934 2.32143,2.32143 z" transform="matrix(0.6835814,0,0,0.6075154,142.59807,120.18847)" style="fill:#000;fill-opacity:1;stroke:#000;stroke-width:1.051;stroke-linecap:round;stroke-linejoin:round;stroke-miterlimit:4;stroke-opacity:1;stroke-dasharray:none"/><rect id="rect3218" width="5.981" height=".325" x="304.193" y="-397.306" transform="matrix(0,1,-1,0,0,0)" style="fill:#000;fill-opacity:1;stroke:#000;stroke-width:.67729282;stroke-linecap:round;stroke-linejoin:round;stroke-miterlimit:4;stroke-opacity:1;stroke-dasharray:none"/></g></g></svg>